<svg width="101" height="91" viewBox="0 0 101 91" fill="none" xmlns="http://www.w3.org/2000/svg">
<path d="M7.31294 12.96C6.54494 12.96 5.9476 12.7253 5.52094 12.256C5.09427 11.7867 4.88094 11.136 4.88094 10.304C4.88094 9.45067 5.0996 8.79467 5.53694 8.336C5.98494 7.86667 6.59827 7.632 7.37694 7.632C7.63294 7.632 7.87827 7.65867 8.11294 7.712C8.35827 7.75467 8.59827 7.82933 8.83294 7.936L8.56094 8.736C8.35827 8.65067 8.1556 8.58667 7.95294 8.544C7.76094 8.50133 7.5636 8.48 7.36094 8.48C6.8916 8.48 6.53427 8.63467 6.28894 8.944C6.05427 9.24267 5.93694 9.696 5.93694 10.304C5.93694 10.88 6.05427 11.328 6.28894 11.648C6.5236 11.9573 6.86494 12.112 7.31294 12.112C7.52627 12.112 7.75027 12.0853 7.98494 12.032C8.23027 11.968 8.48627 11.8827 8.75294 11.776V12.64C8.49694 12.7467 8.2516 12.8267 8.01694 12.88C7.78227 12.9333 7.5476 12.96 7.31294 12.96ZM6.88094 16.88C5.97427 16.88 5.12094 16.7093 4.32094 16.368C3.52094 16.0267 2.81694 15.5573 2.20894 14.96C1.6116 14.352 1.14227 13.648 0.800936 12.848C0.459602 12.048 0.288936 11.1947 0.288936 10.288C0.288936 9.37067 0.459602 8.51733 0.800936 7.728C1.14227 6.928 1.6116 6.22933 2.20894 5.632C2.81694 5.024 3.52094 4.54933 4.32094 4.208C5.12094 3.86667 5.97427 3.696 6.88094 3.696C7.79827 3.696 8.6516 3.86667 9.44094 4.208C10.2409 4.54933 10.9396 5.024 11.5369 5.632C12.1449 6.22933 12.6196 6.928 12.9609 7.728C13.3023 8.51733 13.4729 9.37067 13.4729 10.288C13.4729 11.1947 13.3023 12.048 12.9609 12.848C12.6196 13.648 12.1449 14.352 11.5369 14.96C10.9396 15.5573 10.2409 16.0267 9.44094 16.368C8.6516 16.7093 7.79827 16.88 6.88094 16.88ZM6.88094 15.984C7.67027 15.984 8.40627 15.84 9.08894 15.552C9.78227 15.2533 10.3903 14.8427 10.9129 14.32C11.4356 13.7973 11.8409 13.1947 12.1289 12.512C12.4276 11.8187 12.5769 11.0773 12.5769 10.288C12.5769 9.49867 12.4276 8.76267 12.1289 8.08C11.8409 7.38667 11.4356 6.77867 10.9129 6.256C10.3903 5.73333 9.78227 5.328 9.08894 5.04C8.40627 4.74133 7.67027 4.592 6.88094 4.592C6.0916 4.592 5.35027 4.74133 4.65694 5.04C3.97427 5.328 3.3716 5.73333 2.84894 6.256C2.32627 6.77867 1.9156 7.38667 1.61694 8.08C1.32894 8.76267 1.18494 9.49867 1.18494 10.288C1.18494 11.0773 1.32894 11.8187 1.61694 12.512C1.9156 13.1947 2.32627 13.7973 2.84894 14.32C3.3716 14.8427 3.97427 15.2533 4.65694 15.552C5.35027 15.84 6.0916 15.984 6.88094 15.984ZM22.2878 7.51562V8.20312H20.5066V13.9219C20.5066 14.9531 21.1628 15.375 21.8972 15.375L22.5066 15.3594V16.0938C22.3503 16.125 22.1628 16.1406 21.8347 16.1406C20.7566 16.1406 19.7253 15.4062 19.7253 14.0781V8.20312H18.4753V7.51562H19.7253V5.48438H20.5066V7.51562H22.2878ZM23.6397 13.6562C23.6397 12.1562 24.7178 11.2969 26.7022 11.1406C27.3037 11.0859 28.7178 10.9922 29.1241 10.9688V10.0625C29.1241 8.85938 28.2959 8.09375 26.9209 8.09375C25.7647 8.09375 24.9053 8.64062 24.6866 9.51562H23.8741C24.0616 8.21875 25.3116 7.39062 26.9522 7.39062C28.3897 7.39062 29.9053 8.14062 29.9053 10.125V16H29.1241V14.5312H29.0616C28.6397 15.4219 27.7178 16.1875 26.3584 16.1875C24.8741 16.1875 23.6397 15.2812 23.6397 13.6562ZM24.4209 13.6875C24.4209 14.7969 25.2959 15.4688 26.4522 15.4688C28.0303 15.4688 29.1241 14.2344 29.1241 12.6094V11.6406C28.6944 11.6797 27.3194 11.7891 26.8584 11.8125C25.0928 11.9375 24.4209 12.6719 24.4209 13.6875ZM35.3822 16.1719C33.0541 16.1719 31.5697 14.3438 31.5697 11.7969C31.5697 9.25 33.1009 7.39062 35.2259 7.39062C37.1166 7.39062 38.7884 8.90625 38.7884 11.5156V11.9531H32.3666C32.3978 14 33.5384 15.4531 35.3822 15.4531C36.7103 15.4531 37.4447 14.6875 37.7416 14.1406H38.5853C38.2259 15.2031 37.0853 16.1719 35.3822 16.1719ZM32.3822 11.25H37.9916C37.9916 9.48438 36.8041 8.10938 35.2259 8.10938C33.6478 8.10938 32.4759 9.49219 32.3822 11.25ZM40.4372 16V7.51562H41.2028V8.8125H41.2809C41.6091 7.9375 42.4372 7.40625 43.5466 7.40625C44.7653 7.40625 45.5153 8.01562 45.8591 9.01562H45.9216C46.2653 8.03125 47.1559 7.40625 48.4059 7.40625C50.0309 7.40625 50.9528 8.48438 50.9528 10.3125V16H50.1559V10.3125C50.1559 8.92188 49.4528 8.125 48.2028 8.125C46.8434 8.125 46.0934 9.07812 46.0934 10.375V16H45.2966V10.2656C45.2966 9 44.6403 8.125 43.3591 8.125C42.0778 8.125 41.2184 9.10938 41.2184 10.4844V16H40.4372ZM59.5628 7.51562V8.20312H57.7816V13.9219C57.7816 14.9531 58.4378 15.375 59.1722 15.375L59.7816 15.3594V16.0938C59.6253 16.125 59.4378 16.1406 59.1097 16.1406C58.0316 16.1406 57.0003 15.4062 57.0003 14.0781V8.20312H55.7503V7.51562H57.0003V5.48438H57.7816V7.51562H59.5628ZM62.3209 10.5625V16H61.5397V4.6875H62.3209V8.85938H62.3991C62.7897 7.96875 63.6803 7.40625 64.9147 7.40625C66.6334 7.40625 67.8209 8.53125 67.8209 10.4375V16H67.0241V10.4844C67.0241 9.04688 66.1178 8.125 64.7428 8.125C63.3366 8.125 62.3209 9.09375 62.3209 10.5625ZM69.4853 13.6562C69.4853 12.1562 70.5634 11.2969 72.5478 11.1406C73.1494 11.0859 74.5634 10.9922 74.9697 10.9688V10.0625C74.9697 8.85938 74.1416 8.09375 72.7666 8.09375C71.6103 8.09375 70.7509 8.64062 70.5322 9.51562H69.7197C69.9072 8.21875 71.1572 7.39062 72.7978 7.39062C74.2353 7.39062 75.7509 8.14062 75.7509 10.125V16H74.9697V14.5312H74.9072C74.4853 15.4219 73.5634 16.1875 72.2041 16.1875C70.7197 16.1875 69.4853 15.2812 69.4853 13.6562ZM70.2666 13.6875C70.2666 14.7969 71.1416 15.4688 72.2978 15.4688C73.8759 15.4688 74.9697 14.2344 74.9697 12.6094V11.6406C74.54 11.6797 73.165 11.7891 72.7041 11.8125C70.9384 11.9375 70.2666 12.6719 70.2666 13.6875ZM78.6653 10.5625V16H77.8841V7.51562H78.6497V8.85938H78.7278C79.1184 7.98438 80.0091 7.40625 81.2278 7.40625C82.9466 7.40625 84.1184 8.53125 84.1184 10.4375V16H83.3372V10.4844C83.3372 9.0625 82.4309 8.125 81.0559 8.125C79.6809 8.125 78.6653 9.09375 78.6653 10.5625ZM89.4391 16.1719C87.2984 16.1719 85.7672 14.3438 85.7672 11.7812C85.7672 9.21875 87.2984 7.39062 89.4391 7.39062C91.5797 7.39062 93.1109 9.21875 93.1109 11.7812C93.1109 14.3438 91.5797 16.1719 89.4391 16.1719ZM89.4391 15.4531C91.2047 15.4531 92.3141 13.8281 92.3141 11.7812C92.3141 9.75 91.2047 8.10938 89.4391 8.10938C87.6734 8.10938 86.5641 9.76562 86.5641 11.7812C86.5641 13.8281 87.6734 15.4531 89.4391 15.4531ZM99.4628 9.51562C99.2753 8.64062 98.5566 8.09375 97.4628 8.09375C96.2441 8.07812 95.4003 8.76562 95.4003 9.70312C95.4003 10.4531 95.9159 10.9688 96.9941 11.2344L98.3066 11.5625C99.6659 11.8906 100.353 12.6562 100.353 13.75C100.353 15.1719 99.1972 16.1719 97.3066 16.1719C95.6034 16.1719 94.5253 15.3594 94.3066 13.9062H95.1347C95.3066 14.9219 96.0722 15.4688 97.3066 15.4688C98.6659 15.4688 99.5566 14.8125 99.5566 13.7969C99.5566 13.0469 99.0566 12.5156 98.0253 12.2656L96.7128 11.9375C95.3378 11.6094 94.6034 10.8281 94.6034 9.73438C94.6034 8.35938 95.7753 7.39062 97.4628 7.39062C99.0409 7.39062 100.057 8.26562 100.26 9.51562H99.4628Z" fill="black"/>
<path d="M33.8116 78.2188C33.4522 76.7188 32.1866 75.2969 30.1709 75.2969C27.8428 75.2969 26.1709 77.2188 26.1709 80.3438C26.1709 83.4375 27.8272 85.375 30.2334 85.375C32.3897 85.375 33.9053 83.875 33.9366 81.375H30.4366V80.6406H34.7334V81.3594C34.7334 84.3281 32.8428 86.1562 30.2334 86.1562C27.3116 86.1562 25.3741 83.8594 25.3741 80.3438C25.3741 76.8125 27.3272 74.5312 30.1709 74.5312C32.7022 74.5312 34.3116 76.3594 34.6553 78.2188H33.8116ZM37.1478 86V77.5156H37.9447V86H37.1478ZM37.5541 76.0312C37.2103 76.0312 36.9291 75.7656 36.9291 75.4375C36.9291 75.1094 37.2103 74.8438 37.5541 74.8438C37.8822 74.8438 38.1634 75.1094 38.1634 75.4375C38.1634 75.7656 37.8822 76.0312 37.5541 76.0312ZM43.1872 77.5156V78.2031H41.4059V83.9219C41.4059 84.9531 42.0622 85.375 42.7966 85.375L43.4059 85.3594V86.0938C43.2497 86.125 43.0622 86.1406 42.7341 86.1406C41.6559 86.1406 40.6247 85.4062 40.6247 84.0781V78.2031H39.3747V77.5156H40.6247V75.4844H41.4059V77.5156H43.1872ZM48.5941 86V74.6875H49.4066V79.9688H56.0784V74.6875H56.9066V86H56.0784V80.7031H49.4066V86H48.5941ZM64.6647 82.9062V77.5156H65.4459V86H64.6647V84.6094H64.6022C64.2116 85.4844 63.2897 86.1094 62.0709 86.1094C60.4147 86.1094 59.2428 84.9844 59.2428 83.0781V77.5156H60.0241V83.0312C60.0241 84.4219 60.9459 85.3438 62.2584 85.3438C63.5241 85.3438 64.6647 84.4375 64.6647 82.9062ZM67.7822 86V74.6875H68.5791V79.3281H68.6416C69.0166 78.3281 69.8603 77.3906 71.3291 77.3906C73.3759 77.3906 74.7509 79.2031 74.7509 81.7812C74.7509 84.375 73.3916 86.1719 71.3447 86.1719C69.8603 86.1719 69.0322 85.2344 68.6416 84.2344H68.5478V86H67.7822ZM68.5634 81.7656C68.5634 83.8906 69.5634 85.4531 71.2509 85.4531C72.9697 85.4531 73.9697 83.8438 73.9697 81.7656C73.9697 79.7031 72.9697 78.1094 71.2509 78.1094C69.5634 78.1094 68.5634 79.6562 68.5634 81.7656Z" fill="black"/>
</svg>
