<svg width="516" height="644" viewBox="0 0 516 644" fill="none" xmlns="http://www.w3.org/2000/svg">
<path d="M92 343L221 257L414 378.5L290 484L92 343Z" fill="#767676"/>
<path d="M92 378L221 292L414 413.5L290 519L92 378Z" fill="#767676" fill-opacity="0.7"/>
<path d="M92 427L221 341L414 462.5L290 568L92 427Z" fill="#202020" fill-opacity="0.5"/>
<path d="M92 480L221 394L414 515.5L290 621L92 480Z" fill="black" fill-opacity="0.2"/>
<path d="M92 319L221 233L414 354.5L290 460L92 319Z" fill="#979696"/>
<path d="M97 306L226 220L419 341.5L295 447L97 306Z" fill="#ADADAD"/>
<path d="M97 196L226 110L425 238.5L295 337L97 196Z" fill="white"/>
<path d="M97 196L295 337V430L99.5 287.5L97 196Z" fill="#D9D9D9"/>
<path d="M295 337L425 238.5L420 320.5L295 430V337Z" fill="#C4C4C4"/>
<path d="M107 215L281.5 340.5" stroke="#A0A0A0"/>
<path d="M107 224L281.5 349.5" stroke="#A0A0A0"/>
<path d="M119 235L293.5 360.5" stroke="#A0A0A0"/>
<path d="M118 240L292.5 365.5" stroke="#A0A0A0"/>
<path d="M102 242L276.5 367.5" stroke="#A0A0A0"/>
<path d="M116 268L290.5 393.5" stroke="#A0A0A0"/>
<path d="M301.5 344.5L422 249M297.5 351L418 255.5M297.5 353L418 257.5M299.5 375L420 279.5M303 354.5L423.5 259M299.5 369.5L420 274M297.5 399.5L418 304M303 380L420 287.5" stroke="#727272"/>
<rect x="34" y="394" width="13" height="69" fill="#0076EA"/>
<rect x="34" y="368" width="13" height="18" fill="#0076EA"/>
<rect x="34" y="358" width="13" height="3" fill="#0076EA"/>
<rect y="451" width="13" height="69" fill="#0076EA"/>
<rect y="425" width="13" height="18" fill="#0076EA"/>
<rect y="415" width="13" height="3" fill="#0076EA"/>
<rect x="58" y="514.114" width="13" height="53.8857" fill="#0076EA"/>
<rect x="58" y="493.81" width="13" height="14.0571" fill="#0076EA"/>
<rect x="58" y="486" width="13" height="2.34286" fill="#0076EA"/>
<rect width="13" height="69" transform="matrix(-1 0 0 1 482 470)" fill="#0076EA"/>
<rect width="13" height="18" transform="matrix(-1 0 0 1 482 444)" fill="#0076EA"/>
<rect width="13" height="3" transform="matrix(-1 0 0 1 482 434)" fill="#0076EA"/>
<rect width="13" height="69" transform="matrix(-1 0 0 1 516 527)" fill="#0076EA"/>
<rect width="13" height="18" transform="matrix(-1 0 0 1 516 501)" fill="#0076EA"/>
<rect width="13" height="3" transform="matrix(-1 0 0 1 516 491)" fill="#0076EA"/>
<rect width="13" height="53.8857" transform="matrix(-1 0 0 1 458 590.114)" fill="#0076EA"/>
<rect width="13" height="14.0571" transform="matrix(-1 0 0 1 458 569.81)" fill="#0076EA"/>
<rect width="13" height="2.34286" transform="matrix(-1 0 0 1 458 562)" fill="#0076EA"/>
<ellipse cx="269" cy="210.5" rx="47" ry="13.5" fill="#A5A5A5" fill-opacity="0.5"/>
<path d="M331.389 148.19L296.7 182.467C286.128 191.387 275.226 191.414 271.096 190.313C261.515 188 238.196 169.527 227.734 160.579C217.493 152.65 221.54 134.975 224.844 127.129C227.487 122.504 230.074 100.974 231.038 90.7876C231.699 82.1979 223.329 73.9935 219.062 70.9651C212.124 67.0006 215.621 62.4304 218.236 60.6409C228.808 55.6853 238.609 60.7786 242.188 63.9446C250.778 72.8648 255.679 85.5567 257.055 90.7876C257.716 95.4129 260.634 94.0914 262.011 92.8525L308.263 49.4907C322.8 45.5262 324.507 58.0254 323.543 64.7706L276.465 108.958C275.804 111.601 278.392 112.537 279.768 112.675L291.332 101.525C303.225 99.2122 303.996 108.821 302.895 113.914L290.093 126.303C289.762 128.285 291.607 128.781 292.57 128.781L305.372 116.392C315.944 114.74 318.037 124.513 317.761 129.607L305.372 141.583C304.381 144.556 306.887 145.024 308.263 144.887L319 134.562C332.546 132.58 332.904 142.822 331.389 148.19Z" fill="white" stroke="#262626" stroke-width="7"/>
<path d="M258.075 7.83905L272.84 7.98618L267.21 54.3386L262.534 54.292L258.075 7.83905Z" fill="#262626"/>
<path d="M235.288 32.0126L249.427 27.7574L252.664 56.4459L248.186 57.7934L235.288 32.0126Z" fill="#262626"/>
<path d="M279.018 30.5208L293.43 33.7324L282.208 60.3325L277.644 59.3155L279.018 30.5208Z" fill="#262626"/>
</svg>
