<svg width="720" height="1024" viewBox="0 0 720 1024" fill="none" xmlns="http://www.w3.org/2000/svg">
<rect width="720" height="1024" fill="#1E90FF"/>
<path d="M216 598L345 512L538 633.5L414 739L216 598Z" fill="#767676"/>
<path d="M216 633L345 547L538 668.5L414 774L216 633Z" fill="#767676" fill-opacity="0.7"/>
<path d="M216 682L345 596L538 717.5L414 823L216 682Z" fill="#202020" fill-opacity="0.5"/>
<path d="M216 735L345 649L538 770.5L414 876L216 735Z" fill="black" fill-opacity="0.2"/>
<path d="M362.598 944.96C361.83 944.96 361.233 944.725 360.806 944.256C360.38 943.787 360.166 943.136 360.166 942.304C360.166 941.451 360.385 940.795 360.822 940.336C361.27 939.867 361.884 939.632 362.662 939.632C362.918 939.632 363.164 939.659 363.398 939.712C363.644 939.755 363.884 939.829 364.118 939.936L363.846 940.736C363.644 940.651 363.441 940.587 363.238 940.544C363.046 940.501 362.849 940.48 362.646 940.48C362.177 940.48 361.82 940.635 361.574 940.944C361.34 941.243 361.222 941.696 361.222 942.304C361.222 942.88 361.34 943.328 361.574 943.648C361.809 943.957 362.15 944.112 362.598 944.112C362.812 944.112 363.036 944.085 363.27 944.032C363.516 943.968 363.772 943.883 364.038 943.776V944.64C363.782 944.747 363.537 944.827 363.302 944.88C363.068 944.933 362.833 944.96 362.598 944.96ZM362.166 948.88C361.26 948.88 360.406 948.709 359.606 948.368C358.806 948.027 358.102 947.557 357.494 946.96C356.897 946.352 356.428 945.648 356.086 944.848C355.745 944.048 355.574 943.195 355.574 942.288C355.574 941.371 355.745 940.517 356.086 939.728C356.428 938.928 356.897 938.229 357.494 937.632C358.102 937.024 358.806 936.549 359.606 936.208C360.406 935.867 361.26 935.696 362.166 935.696C363.084 935.696 363.937 935.867 364.726 936.208C365.526 936.549 366.225 937.024 366.822 937.632C367.43 938.229 367.905 938.928 368.246 939.728C368.588 940.517 368.758 941.371 368.758 942.288C368.758 943.195 368.588 944.048 368.246 944.848C367.905 945.648 367.43 946.352 366.822 946.96C366.225 947.557 365.526 948.027 364.726 948.368C363.937 948.709 363.084 948.88 362.166 948.88ZM362.166 947.984C362.956 947.984 363.692 947.84 364.374 947.552C365.068 947.253 365.676 946.843 366.198 946.32C366.721 945.797 367.126 945.195 367.414 944.512C367.713 943.819 367.862 943.077 367.862 942.288C367.862 941.499 367.713 940.763 367.414 940.08C367.126 939.387 366.721 938.779 366.198 938.256C365.676 937.733 365.068 937.328 364.374 937.04C363.692 936.741 362.956 936.592 362.166 936.592C361.377 936.592 360.636 936.741 359.942 937.04C359.26 937.328 358.657 937.733 358.134 938.256C357.612 938.779 357.201 939.387 356.902 940.08C356.614 940.763 356.47 941.499 356.47 942.288C356.47 943.077 356.614 943.819 356.902 944.512C357.201 945.195 357.612 945.797 358.134 946.32C358.657 946.843 359.26 947.253 359.942 947.552C360.636 947.84 361.377 947.984 362.166 947.984ZM377.573 939.516V940.203H375.792V945.922C375.792 946.953 376.448 947.375 377.182 947.375L377.792 947.359V948.094C377.636 948.125 377.448 948.141 377.12 948.141C376.042 948.141 375.011 947.406 375.011 946.078V940.203H373.761V939.516H375.011V937.484H375.792V939.516H377.573ZM378.925 945.656C378.925 944.156 380.003 943.297 381.987 943.141C382.589 943.086 384.003 942.992 384.409 942.969V942.062C384.409 940.859 383.581 940.094 382.206 940.094C381.05 940.094 380.191 940.641 379.972 941.516H379.159C379.347 940.219 380.597 939.391 382.237 939.391C383.675 939.391 385.191 940.141 385.191 942.125V948H384.409V946.531H384.347C383.925 947.422 383.003 948.188 381.644 948.188C380.159 948.188 378.925 947.281 378.925 945.656ZM379.706 945.688C379.706 946.797 380.581 947.469 381.737 947.469C383.316 947.469 384.409 946.234 384.409 944.609V943.641C383.98 943.68 382.605 943.789 382.144 943.812C380.378 943.938 379.706 944.672 379.706 945.688ZM390.667 948.172C388.339 948.172 386.855 946.344 386.855 943.797C386.855 941.25 388.386 939.391 390.511 939.391C392.402 939.391 394.074 940.906 394.074 943.516V943.953H387.652C387.683 946 388.824 947.453 390.667 947.453C391.996 947.453 392.73 946.688 393.027 946.141H393.871C393.511 947.203 392.371 948.172 390.667 948.172ZM387.667 943.25H393.277C393.277 941.484 392.089 940.109 390.511 940.109C388.933 940.109 387.761 941.492 387.667 943.25ZM395.722 948V939.516H396.488V940.812H396.566C396.894 939.938 397.722 939.406 398.832 939.406C400.051 939.406 400.801 940.016 401.144 941.016H401.207C401.551 940.031 402.441 939.406 403.691 939.406C405.316 939.406 406.238 940.484 406.238 942.312V948H405.441V942.312C405.441 940.922 404.738 940.125 403.488 940.125C402.129 940.125 401.379 941.078 401.379 942.375V948H400.582V942.266C400.582 941 399.926 940.125 398.644 940.125C397.363 940.125 396.504 941.109 396.504 942.484V948H395.722ZM414.848 939.516V940.203H413.067V945.922C413.067 946.953 413.723 947.375 414.457 947.375L415.067 947.359V948.094C414.911 948.125 414.723 948.141 414.395 948.141C413.317 948.141 412.286 947.406 412.286 946.078V940.203H411.036V939.516H412.286V937.484H413.067V939.516H414.848ZM416.2 945.656C416.2 944.156 417.278 943.297 419.262 943.141C419.864 943.086 421.278 942.992 421.684 942.969V942.062C421.684 940.859 420.856 940.094 419.481 940.094C418.325 940.094 417.466 940.641 417.247 941.516H416.434C416.622 940.219 417.872 939.391 419.512 939.391C420.95 939.391 422.466 940.141 422.466 942.125V948H421.684V946.531H421.622C421.2 947.422 420.278 948.188 418.919 948.188C417.434 948.188 416.2 947.281 416.2 945.656ZM416.981 945.688C416.981 946.797 417.856 947.469 419.012 947.469C420.591 947.469 421.684 946.234 421.684 944.609V943.641C421.255 943.68 419.88 943.789 419.419 943.812C417.653 943.938 416.981 944.672 416.981 945.688ZM425.38 942.562V948H424.599V939.516H425.364V940.859H425.443C425.833 939.984 426.724 939.406 427.943 939.406C429.661 939.406 430.833 940.531 430.833 942.438V948H430.052V942.484C430.052 941.062 429.146 940.125 427.771 940.125C426.396 940.125 425.38 941.094 425.38 942.562ZM436.154 948.172C434.013 948.172 432.482 946.344 432.482 943.781C432.482 941.219 434.013 939.391 436.154 939.391C438.294 939.391 439.826 941.219 439.826 943.781C439.826 946.344 438.294 948.172 436.154 948.172ZM436.154 947.453C437.919 947.453 439.029 945.828 439.029 943.781C439.029 941.75 437.919 940.109 436.154 940.109C434.388 940.109 433.279 941.766 433.279 943.781C433.279 945.828 434.388 947.453 436.154 947.453ZM446.178 941.516C445.99 940.641 445.271 940.094 444.178 940.094C442.959 940.078 442.115 940.766 442.115 941.703C442.115 942.453 442.631 942.969 443.709 943.234L445.021 943.562C446.381 943.891 447.068 944.656 447.068 945.75C447.068 947.172 445.912 948.172 444.021 948.172C442.318 948.172 441.24 947.359 441.021 945.906H441.849C442.021 946.922 442.787 947.469 444.021 947.469C445.381 947.469 446.271 946.812 446.271 945.797C446.271 945.047 445.771 944.516 444.74 944.266L443.428 943.938C442.053 943.609 441.318 942.828 441.318 941.734C441.318 940.359 442.49 939.391 444.178 939.391C445.756 939.391 446.771 940.266 446.974 941.516H446.178Z" fill="white"/>
<path d="M342.362 896.719V892.375H361.393V896.719H354.518V915H349.237V896.719H342.362ZM360.604 910.281C360.604 906.531 363.511 905.188 366.886 904.969C368.104 904.891 370.229 904.812 370.948 904.781V903.406C370.948 902.219 370.073 901.562 368.636 901.562C367.229 901.562 366.354 902.156 366.136 903.281H361.229C361.448 900.281 364.011 897.812 368.761 897.812C372.948 897.812 376.229 899.812 376.229 903.469V915H371.261V912.625H371.136C370.198 914.344 368.573 915.312 366.198 915.312C362.948 915.312 360.604 913.656 360.604 910.281ZM365.604 910.062C365.604 911.219 366.511 911.812 367.792 911.812C369.573 911.812 371.011 910.656 370.979 908.969V907.875C370.339 907.906 368.542 907.984 367.761 908.062C366.448 908.219 365.604 908.938 365.604 910.062ZM384.409 905.281V915H379.128V898.031H384.128V901.125H384.316C385.097 899.062 386.972 897.812 389.472 897.812C393.034 897.812 395.378 900.344 395.347 904.188V915H390.097V905.188C390.097 903.281 389.066 902.125 387.316 902.125C385.566 902.125 384.409 903.312 384.409 905.281ZM406.214 915.312C400.902 915.312 397.683 911.781 397.683 906.562C397.683 901.344 400.902 897.812 406.214 897.812C411.527 897.812 414.746 901.344 414.746 906.562C414.746 911.781 411.527 915.312 406.214 915.312ZM406.246 911.344C408.246 911.344 409.371 909.375 409.371 906.531C409.371 903.688 408.246 901.719 406.246 901.719C404.183 901.719 403.058 903.688 403.058 906.531C403.058 909.375 404.183 911.344 406.246 911.344ZM426.926 903.281C426.769 902.156 425.769 901.438 424.363 901.438C423.051 901.438 422.019 902.031 422.051 902.906C422.019 903.562 422.519 904.094 423.988 904.375L427.207 905C430.582 905.656 432.207 907.125 432.238 909.594C432.207 913.062 429.019 915.312 424.426 915.312C419.582 915.312 416.738 913.156 416.394 909.781H421.644C421.832 911 422.894 911.656 424.457 911.656C425.894 911.656 426.863 911.094 426.894 910.156C426.863 909.406 426.207 908.938 424.738 908.625L421.832 908.094C418.488 907.469 416.801 905.781 416.832 903.188C416.801 899.812 419.676 897.812 424.269 897.812C428.832 897.812 431.613 899.906 431.832 903.281H426.926ZM456.411 900.531C456.098 898.219 454.442 896.75 451.911 896.75C448.567 896.75 446.536 899.281 446.536 903.688C446.536 908.25 448.629 910.625 451.879 910.625C454.317 910.625 456.004 909.312 456.411 907.094L461.786 907.125C461.348 911.156 457.911 915.312 451.786 915.312C445.661 915.312 441.098 911.125 441.098 903.688C441.098 896.219 445.754 892.062 451.786 892.062C457.223 892.062 461.223 895.125 461.786 900.531H456.411ZM463.747 910.281C463.747 906.531 466.653 905.188 470.028 904.969C471.247 904.891 473.372 904.812 474.091 904.781V903.406C474.091 902.219 473.216 901.562 471.778 901.562C470.372 901.562 469.497 902.156 469.278 903.281H464.372C464.591 900.281 467.153 897.812 471.903 897.812C476.091 897.812 479.372 899.812 479.372 903.469V915H474.403V912.625H474.278C473.341 914.344 471.716 915.312 469.341 915.312C466.091 915.312 463.747 913.656 463.747 910.281ZM468.747 910.062C468.747 911.219 469.653 911.812 470.934 911.812C472.716 911.812 474.153 910.656 474.122 908.969V907.875C473.481 907.906 471.684 907.984 470.903 908.062C469.591 908.219 468.747 908.938 468.747 910.062ZM487.552 892.375V915H482.271V892.375H487.552ZM495.888 892.375V915H490.607V892.375H495.888Z" fill="white"/>
<path d="M271 908.018L291.845 894L324 914.945L302.994 931L271 908.018Z" fill="white" fill-opacity="0.5"/>
<path d="M273 900.018L293.845 886L326 906.945L304.994 923L273 900.018Z" fill="white" fill-opacity="0.5"/>
<path d="M275 890.018L295.845 876L328 896.945L306.994 913L275 890.018Z" fill="white"/>
<path d="M341 400.5L202 289.5L261.5 249.5L119 137L235 60" stroke="#0055A8" stroke-width="3"/>
<path d="M164 107.5L53 13" stroke="#0055A8" stroke-width="3"/>
<path d="M315 454L52 250.5L1 286.5" stroke="#0055A8" stroke-width="3"/>
<path d="M386 557.5L123 354L38.5 414L3.5 383" stroke="#0055A8" stroke-width="3"/>
<path d="M510 562.5L612.5 484.5L725.5 562.5" stroke="#0055A8" stroke-width="3"/>
<path d="M452 488L585 393L519 347L597.5 291" stroke="#0055A8" stroke-width="3"/>
<path d="M338 589L471 494L405 448L483.5 392" stroke="#0055A8" stroke-width="3"/>
<path d="M346.5 412L578 245L512 199L590.5 143" stroke="#0055A8" stroke-width="3"/>
<path d="M479.5 315L295.5 186L548.5 27" stroke="#0055A8" stroke-width="3"/>
<path d="M216 427L64.5 533" stroke="#0055A8" stroke-width="3"/>
<path d="M216 574L345 488L538 609.5L414 715L216 574Z" fill="#979696"/>
<path d="M221 561L350 475L543 596.5L419 702L221 561Z" fill="#ADADAD"/>
<path d="M221 451L350 365L549 493.5L419 592L221 451Z" fill="white"/>
<path d="M221 451L419 592V685L223.5 542.5L221 451Z" fill="#D9D9D9"/>
<path d="M419 592L549 493.5L544 575.5L419 685V592Z" fill="#C4C4C4"/>
<path d="M231 470L405.5 595.5" stroke="#A0A0A0"/>
<path d="M231 479L405.5 604.5" stroke="#A0A0A0"/>
<path d="M243 490L417.5 615.5" stroke="#A0A0A0"/>
<path d="M242 495L416.5 620.5" stroke="#A0A0A0"/>
<path d="M226 497L400.5 622.5" stroke="#A0A0A0"/>
<path d="M240 523L414.5 648.5" stroke="#A0A0A0"/>
<path d="M425.5 599.5L546 504M421.5 606L542 510.5M421.5 608L542 512.5M423.5 630L544 534.5M427 609.5L547.5 514M423.5 624.5L544 529M421.5 654.5L542 559M427 635L544 542.5" stroke="#727272"/>
<rect x="158" y="649" width="13" height="69" fill="#0076EA"/>
<rect x="158" y="623" width="13" height="18" fill="#0076EA"/>
<rect x="158" y="613" width="13" height="3" fill="#0076EA"/>
<rect x="124" y="706" width="13" height="69" fill="#0076EA"/>
<rect x="124" y="680" width="13" height="18" fill="#0076EA"/>
<rect x="124" y="670" width="13" height="3" fill="#0076EA"/>
<rect x="182" y="769.114" width="13" height="53.8857" fill="#0076EA"/>
<rect x="182" y="748.81" width="13" height="14.0571" fill="#0076EA"/>
<rect x="182" y="741" width="13" height="2.34286" fill="#0076EA"/>
<rect width="13" height="69" transform="matrix(-1 0 0 1 606 725)" fill="#0076EA"/>
<rect width="13" height="18" transform="matrix(-1 0 0 1 606 699)" fill="#0076EA"/>
<rect width="13" height="3" transform="matrix(-1 0 0 1 606 689)" fill="#0076EA"/>
<rect width="13" height="69" transform="matrix(-1 0 0 1 640 782)" fill="#0076EA"/>
<rect width="13" height="18" transform="matrix(-1 0 0 1 640 756)" fill="#0076EA"/>
<rect width="13" height="3" transform="matrix(-1 0 0 1 640 746)" fill="#0076EA"/>
<rect width="13" height="53.8857" transform="matrix(-1 0 0 1 582 845.114)" fill="#0076EA"/>
<rect width="13" height="14.0571" transform="matrix(-1 0 0 1 582 824.81)" fill="#0076EA"/>
<rect width="13" height="2.34286" transform="matrix(-1 0 0 1 582 817)" fill="#0076EA"/>
<path d="M419.718 422.015L448.415 448.573C455.938 456.721 456.351 465.453 455.617 468.8C454.108 476.557 440.146 495.896 433.354 504.597C427.37 513.084 413.068 510.475 406.665 508.11C402.865 506.159 385.528 504.857 377.335 504.45C370.431 504.229 364.159 511.226 361.886 514.753C358.959 520.452 355.174 517.815 353.647 515.784C349.299 507.494 353.027 499.461 355.435 496.481C362.272 489.281 372.262 484.901 376.403 483.611C380.084 482.916 378.921 480.626 377.879 479.568L341.491 444.074C337.795 432.573 347.745 430.758 353.182 431.288L390.262 467.414C392.402 467.849 393.059 465.742 393.12 464.635L383.775 455.772C381.497 446.329 389.165 445.367 393.284 446.067L403.666 455.877C405.266 456.071 405.597 454.575 405.562 453.804L395.18 443.993C393.478 435.585 401.232 433.559 405.321 433.597L415.358 443.091C417.775 443.778 418.06 441.755 417.9 440.657L409.246 432.427C407.173 421.648 415.364 420.995 419.718 422.015Z" fill="white" stroke="#262626" stroke-width="7"/>
<path d="M309.927 485.765L309.516 473.934L346.844 476.783L346.975 480.53L309.927 485.765Z" fill="#262626"/>
<path d="M330.105 503.151L326.19 491.979L349.053 488.359L350.293 491.897L330.105 503.151Z" fill="#262626"/>
<path d="M327.344 468.178L329.4 456.519L351.108 464.556L350.457 468.247L327.344 468.178Z" fill="#262626"/>
</svg>
