<svg width="94" height="70" viewBox="0 0 94 70" fill="none" xmlns="http://www.w3.org/2000/svg">
<path d="M8.59825 12.96C7.83025 12.96 7.23292 12.7253 6.80625 12.256C6.37958 11.7867 6.16625 11.136 6.16625 10.304C6.16625 9.45067 6.38492 8.79467 6.82225 8.336C7.27025 7.86667 7.88358 7.632 8.66225 7.632C8.91825 7.632 9.16358 7.65867 9.39825 7.712C9.64358 7.75467 9.88358 7.82933 10.1182 7.936L9.84625 8.736C9.64358 8.65067 9.44092 8.58667 9.23825 8.544C9.04625 8.50133 8.84892 8.48 8.64625 8.48C8.17692 8.48 7.81958 8.63467 7.57425 8.944C7.33958 9.24267 7.22225 9.696 7.22225 10.304C7.22225 10.88 7.33958 11.328 7.57425 11.648C7.80892 11.9573 8.15025 12.112 8.59825 12.112C8.81158 12.112 9.03558 12.0853 9.27025 12.032C9.51558 11.968 9.77158 11.8827 10.0382 11.776V12.64C9.78225 12.7467 9.53692 12.8267 9.30225 12.88C9.06758 12.9333 8.83292 12.96 8.59825 12.96ZM8.16625 16.88C7.25958 16.88 6.40625 16.7093 5.60625 16.368C4.80625 16.0267 4.10225 15.5573 3.49425 14.96C2.89692 14.352 2.42758 13.648 2.08625 12.848C1.74492 12.048 1.57425 11.1947 1.57425 10.288C1.57425 9.37067 1.74492 8.51733 2.08625 7.728C2.42758 6.928 2.89692 6.22933 3.49425 5.632C4.10225 5.024 4.80625 4.54933 5.60625 4.208C6.40625 3.86667 7.25958 3.696 8.16625 3.696C9.08358 3.696 9.93692 3.86667 10.7262 4.208C11.5262 4.54933 12.2249 5.024 12.8222 5.632C13.4302 6.22933 13.9049 6.928 14.2462 7.728C14.5876 8.51733 14.7582 9.37067 14.7582 10.288C14.7582 11.1947 14.5876 12.048 14.2462 12.848C13.9049 13.648 13.4302 14.352 12.8222 14.96C12.2249 15.5573 11.5262 16.0267 10.7262 16.368C9.93692 16.7093 9.08358 16.88 8.16625 16.88ZM8.16625 15.984C8.95558 15.984 9.69158 15.84 10.3742 15.552C11.0676 15.2533 11.6756 14.8427 12.1982 14.32C12.7209 13.7973 13.1262 13.1947 13.4142 12.512C13.7129 11.8187 13.8622 11.0773 13.8622 10.288C13.8622 9.49867 13.7129 8.76267 13.4142 8.08C13.1262 7.38667 12.7209 6.77867 12.1982 6.256C11.6756 5.73333 11.0676 5.328 10.3742 5.04C9.69158 4.74133 8.95558 4.592 8.16625 4.592C7.37692 4.592 6.63558 4.74133 5.94225 5.04C5.25958 5.328 4.65692 5.73333 4.13425 6.256C3.61158 6.77867 3.20092 7.38667 2.90225 8.08C2.61425 8.76267 2.47025 9.49867 2.47025 10.288C2.47025 11.0773 2.61425 11.8187 2.90225 12.512C3.20092 13.1947 3.61158 13.7973 4.13425 14.32C4.65692 14.8427 5.25958 15.2533 5.94225 15.552C6.63558 15.84 7.37692 15.984 8.16625 15.984ZM23.5731 7.51562V8.20312H21.7919V13.9219C21.7919 14.9531 22.4481 15.375 23.1825 15.375L23.7919 15.3594V16.0938C23.6356 16.125 23.4481 16.1406 23.12 16.1406C22.0419 16.1406 21.0106 15.4062 21.0106 14.0781V8.20312H19.7606V7.51562H21.0106V5.48438H21.7919V7.51562H23.5731ZM24.925 13.6562C24.925 12.1562 26.0031 11.2969 27.9875 11.1406C28.5891 11.0859 30.0031 10.9922 30.4094 10.9688V10.0625C30.4094 8.85938 29.5812 8.09375 28.2062 8.09375C27.05 8.09375 26.1906 8.64062 25.9719 9.51562H25.1594C25.3469 8.21875 26.5969 7.39062 28.2375 7.39062C29.675 7.39062 31.1906 8.14062 31.1906 10.125V16H30.4094V14.5312H30.3469C29.925 15.4219 29.0031 16.1875 27.6437 16.1875C26.1594 16.1875 24.925 15.2812 24.925 13.6562ZM25.7062 13.6875C25.7062 14.7969 26.5812 15.4688 27.7375 15.4688C29.3156 15.4688 30.4094 14.2344 30.4094 12.6094V11.6406C29.9797 11.6797 28.6047 11.7891 28.1437 11.8125C26.3781 11.9375 25.7062 12.6719 25.7062 13.6875ZM36.6675 16.1719C34.3394 16.1719 32.855 14.3438 32.855 11.7969C32.855 9.25 34.3862 7.39062 36.5112 7.39062C38.4019 7.39062 40.0737 8.90625 40.0737 11.5156V11.9531H33.6519C33.6831 14 34.8237 15.4531 36.6675 15.4531C37.9956 15.4531 38.73 14.6875 39.0269 14.1406H39.8706C39.5112 15.2031 38.3706 16.1719 36.6675 16.1719ZM33.6675 11.25H39.2769C39.2769 9.48438 38.0894 8.10938 36.5112 8.10938C34.9331 8.10938 33.7612 9.49219 33.6675 11.25ZM41.7225 16V7.51562H42.4881V8.8125H42.5662C42.8944 7.9375 43.7225 7.40625 44.8319 7.40625C46.0506 7.40625 46.8006 8.01562 47.1444 9.01562H47.2069C47.5506 8.03125 48.4412 7.40625 49.6912 7.40625C51.3162 7.40625 52.2381 8.48438 52.2381 10.3125V16H51.4412V10.3125C51.4412 8.92188 50.7381 8.125 49.4881 8.125C48.1287 8.125 47.3787 9.07812 47.3787 10.375V16H46.5819V10.2656C46.5819 9 45.9256 8.125 44.6444 8.125C43.3631 8.125 42.5037 9.10938 42.5037 10.4844V16H41.7225ZM60.8481 7.51562V8.20312H59.0669V13.9219C59.0669 14.9531 59.7231 15.375 60.4575 15.375L61.0669 15.3594V16.0938C60.9106 16.125 60.7231 16.1406 60.395 16.1406C59.3169 16.1406 58.2856 15.4062 58.2856 14.0781V8.20312H57.0356V7.51562H58.2856V5.48438H59.0669V7.51562H60.8481ZM62.2 13.6562C62.2 12.1562 63.2781 11.2969 65.2625 11.1406C65.8641 11.0859 67.2781 10.9922 67.6844 10.9688V10.0625C67.6844 8.85938 66.8562 8.09375 65.4812 8.09375C64.325 8.09375 63.4656 8.64062 63.2469 9.51562H62.4344C62.6219 8.21875 63.8719 7.39062 65.5125 7.39062C66.95 7.39062 68.4656 8.14062 68.4656 10.125V16H67.6844V14.5312H67.6219C67.2 15.4219 66.2781 16.1875 64.9187 16.1875C63.4344 16.1875 62.2 15.2812 62.2 13.6562ZM62.9812 13.6875C62.9812 14.7969 63.8562 15.4688 65.0125 15.4688C66.5906 15.4688 67.6844 14.2344 67.6844 12.6094V11.6406C67.2547 11.6797 65.8797 11.7891 65.4187 11.8125C63.6531 11.9375 62.9812 12.6719 62.9812 13.6875ZM71.38 10.5625V16H70.5988V7.51562H71.3644V8.85938H71.4425C71.8331 7.98438 72.7238 7.40625 73.9425 7.40625C75.6613 7.40625 76.8331 8.53125 76.8331 10.4375V16H76.0519V10.4844C76.0519 9.0625 75.1456 8.125 73.7706 8.125C72.3956 8.125 71.38 9.09375 71.38 10.5625ZM82.1537 16.1719C80.0131 16.1719 78.4819 14.3438 78.4819 11.7812C78.4819 9.21875 80.0131 7.39062 82.1537 7.39062C84.2944 7.39062 85.8256 9.21875 85.8256 11.7812C85.8256 14.3438 84.2944 16.1719 82.1537 16.1719ZM82.1537 15.4531C83.9194 15.4531 85.0287 13.8281 85.0287 11.7812C85.0287 9.75 83.9194 8.10938 82.1537 8.10938C80.3881 8.10938 79.2787 9.76562 79.2787 11.7812C79.2787 13.8281 80.3881 15.4531 82.1537 15.4531ZM92.1775 9.51562C91.99 8.64062 91.2713 8.09375 90.1775 8.09375C88.9588 8.07812 88.115 8.76562 88.115 9.70312C88.115 10.4531 88.6306 10.9688 89.7088 11.2344L91.0213 11.5625C92.3806 11.8906 93.0681 12.6562 93.0681 13.75C93.0681 15.1719 91.9119 16.1719 90.0213 16.1719C88.3181 16.1719 87.24 15.3594 87.0213 13.9062H87.8494C88.0213 14.9219 88.7869 15.4688 90.0213 15.4688C91.3806 15.4688 92.2713 14.8125 92.2713 13.7969C92.2713 13.0469 91.7713 12.5156 90.74 12.2656L89.4275 11.9375C88.0525 11.6094 87.3181 10.8281 87.3181 9.73438C87.3181 8.35938 88.49 7.39062 90.1775 7.39062C91.7556 7.39062 92.7713 8.26562 92.9744 9.51562H92.1775Z" fill="black"/>
<path d="M27.8116 57.2188C27.4522 55.7188 26.1866 54.2969 24.1709 54.2969C21.8428 54.2969 20.1709 56.2188 20.1709 59.3438C20.1709 62.4375 21.8272 64.375 24.2334 64.375C26.3897 64.375 27.9053 62.875 27.9366 60.375H24.4366V59.6406H28.7334V60.3594C28.7334 63.3281 26.8428 65.1562 24.2334 65.1562C21.3116 65.1562 19.3741 62.8594 19.3741 59.3438C19.3741 55.8125 21.3272 53.5312 24.1709 53.5312C26.7022 53.5312 28.3116 55.3594 28.6553 57.2188H27.8116ZM31.1478 65V56.5156H31.9447V65H31.1478ZM31.5541 55.0312C31.2103 55.0312 30.9291 54.7656 30.9291 54.4375C30.9291 54.1094 31.2103 53.8438 31.5541 53.8438C31.8822 53.8438 32.1634 54.1094 32.1634 54.4375C32.1634 54.7656 31.8822 55.0312 31.5541 55.0312ZM37.1872 56.5156V57.2031H35.4059V62.9219C35.4059 63.9531 36.0622 64.375 36.7966 64.375L37.4059 64.3594V65.0938C37.2497 65.125 37.0622 65.1406 36.7341 65.1406C35.6559 65.1406 34.6247 64.4062 34.6247 63.0781V57.2031H33.3747V56.5156H34.6247V54.4844H35.4059V56.5156H37.1872ZM42.5941 65V53.6875H43.4066V58.9688H50.0784V53.6875H50.9066V65H50.0784V59.7031H43.4066V65H42.5941ZM58.6647 61.9062V56.5156H59.4459V65H58.6647V63.6094H58.6022C58.2116 64.4844 57.2897 65.1094 56.0709 65.1094C54.4147 65.1094 53.2428 63.9844 53.2428 62.0781V56.5156H54.0241V62.0312C54.0241 63.4219 54.9459 64.3438 56.2584 64.3438C57.5241 64.3438 58.6647 63.4375 58.6647 61.9062ZM61.7822 65V53.6875H62.5791V58.3281H62.6416C63.0166 57.3281 63.8603 56.3906 65.3291 56.3906C67.3759 56.3906 68.7509 58.2031 68.7509 60.7812C68.7509 63.375 67.3916 65.1719 65.3447 65.1719C63.8603 65.1719 63.0322 64.2344 62.6416 63.2344H62.5478V65H61.7822ZM62.5634 60.7656C62.5634 62.8906 63.5634 64.4531 65.2509 64.4531C66.9697 64.4531 67.9697 62.8438 67.9697 60.7656C67.9697 58.7031 66.9697 57.1094 65.2509 57.1094C63.5634 57.1094 62.5634 58.6562 62.5634 60.7656Z" fill="black"/>
</svg>
