<svg width="266" height="64" viewBox="0 0 266 64" fill="none" xmlns="http://www.w3.org/2000/svg">
<path d="M101.362 16.7188V12.375H120.393V16.7188H113.518V35H108.237V16.7188H101.362ZM119.604 30.2812C119.604 26.5312 122.511 25.1875 125.886 24.9688C127.104 24.8906 129.229 24.8125 129.948 24.7812V23.4062C129.948 22.2188 129.073 21.5625 127.636 21.5625C126.229 21.5625 125.354 22.1562 125.136 23.2812H120.229C120.448 20.2812 123.011 17.8125 127.761 17.8125C131.948 17.8125 135.229 19.8125 135.229 23.4688V35H130.261V32.625H130.136C129.198 34.3438 127.573 35.3125 125.198 35.3125C121.948 35.3125 119.604 33.6562 119.604 30.2812ZM124.604 30.0625C124.604 31.2188 125.511 31.8125 126.792 31.8125C128.573 31.8125 130.011 30.6562 129.979 28.9688V27.875C129.339 27.9062 127.542 27.9844 126.761 28.0625C125.448 28.2188 124.604 28.9375 124.604 30.0625ZM143.409 25.2812V35H138.128V18.0312H143.128V21.125H143.316C144.097 19.0625 145.972 17.8125 148.472 17.8125C152.034 17.8125 154.378 20.3438 154.347 24.1875V35H149.097V25.1875C149.097 23.2812 148.066 22.125 146.316 22.125C144.566 22.125 143.409 23.3125 143.409 25.2812ZM165.214 35.3125C159.902 35.3125 156.683 31.7812 156.683 26.5625C156.683 21.3438 159.902 17.8125 165.214 17.8125C170.527 17.8125 173.746 21.3438 173.746 26.5625C173.746 31.7812 170.527 35.3125 165.214 35.3125ZM165.246 31.3438C167.246 31.3438 168.371 29.375 168.371 26.5312C168.371 23.6875 167.246 21.7188 165.246 21.7188C163.183 21.7188 162.058 23.6875 162.058 26.5312C162.058 29.375 163.183 31.3438 165.246 31.3438ZM185.926 23.2812C185.769 22.1562 184.769 21.4375 183.363 21.4375C182.051 21.4375 181.019 22.0312 181.051 22.9062C181.019 23.5625 181.519 24.0938 182.988 24.375L186.207 25C189.582 25.6562 191.207 27.125 191.238 29.5938C191.207 33.0625 188.019 35.3125 183.426 35.3125C178.582 35.3125 175.738 33.1562 175.394 29.7812H180.644C180.832 31 181.894 31.6562 183.457 31.6562C184.894 31.6562 185.863 31.0938 185.894 30.1562C185.863 29.4062 185.207 28.9375 183.738 28.625L180.832 28.0938C177.488 27.4688 175.801 25.7812 175.832 23.1875C175.801 19.8125 178.676 17.8125 183.269 17.8125C187.832 17.8125 190.613 19.9062 190.832 23.2812H185.926ZM215.411 20.5312C215.098 18.2188 213.442 16.75 210.911 16.75C207.567 16.75 205.536 19.2812 205.536 23.6875C205.536 28.25 207.629 30.625 210.879 30.625C213.317 30.625 215.004 29.3125 215.411 27.0938L220.786 27.125C220.348 31.1562 216.911 35.3125 210.786 35.3125C204.661 35.3125 200.098 31.125 200.098 23.6875C200.098 16.2188 204.754 12.0625 210.786 12.0625C216.223 12.0625 220.223 15.125 220.786 20.5312H215.411ZM222.747 30.2812C222.747 26.5312 225.653 25.1875 229.028 24.9688C230.247 24.8906 232.372 24.8125 233.091 24.7812V23.4062C233.091 22.2188 232.216 21.5625 230.778 21.5625C229.372 21.5625 228.497 22.1562 228.278 23.2812H223.372C223.591 20.2812 226.153 17.8125 230.903 17.8125C235.091 17.8125 238.372 19.8125 238.372 23.4688V35H233.403V32.625H233.278C232.341 34.3438 230.716 35.3125 228.341 35.3125C225.091 35.3125 222.747 33.6562 222.747 30.2812ZM227.747 30.0625C227.747 31.2188 228.653 31.8125 229.934 31.8125C231.716 31.8125 233.153 30.6562 233.122 28.9688V27.875C232.481 27.9062 230.684 27.9844 229.903 28.0625C228.591 28.2188 227.747 28.9375 227.747 30.0625ZM246.552 12.375V35H241.271V12.375H246.552ZM254.888 12.375V35H249.607V12.375H254.888Z" fill="black"/>
<path d="M106.457 51.2051C106.197 49.8652 105.021 48.6348 103.312 48.6348C101.385 48.6348 99.7852 50.207 99.7852 53.0508C99.7852 55.9219 101.385 57.4531 103.312 57.4531C105.021 57.4531 106.197 56.25 106.457 54.8965H107.182C106.895 56.5645 105.5 58.1367 103.312 58.1367C100.824 58.1367 99.0879 56.127 99.0879 53.0508C99.0879 49.9746 100.824 47.9648 103.312 47.9648C105.5 47.9648 106.895 49.5098 107.182 51.2051H106.457ZM114.203 50.5898C114.108 49.4004 113.151 48.6074 111.77 48.6074C110.348 48.6074 109.336 49.4414 109.336 50.5762C109.336 51.6016 110.225 52.1621 111.346 52.4902L112.412 52.8047C113.834 53.2148 115.037 53.9121 115.037 55.4023C115.037 56.9883 113.752 58.1641 111.701 58.1641C109.746 58.1641 108.502 57.1113 108.393 55.5664H109.118C109.213 56.7832 110.266 57.5078 111.701 57.5078C113.246 57.5078 114.34 56.6602 114.34 55.4023C114.34 54.377 113.561 53.8574 112.207 53.4473L111.045 53.1055C109.5 52.627 108.639 51.834 108.639 50.6035C108.639 49.0449 109.993 47.9512 111.784 47.9512C113.575 47.9512 114.832 49.0586 114.901 50.5898H114.203ZM119.702 58V48.1016H122.97C124.815 48.1016 125.786 49.1406 125.786 50.6582C125.786 51.875 125.157 52.6543 124.241 52.8867V52.9551C125.239 53.0234 126.183 53.9668 126.183 55.4297C126.183 56.9336 125.185 58 123.202 58H119.702ZM123.202 57.3438C124.692 57.3438 125.485 56.5508 125.485 55.416C125.485 54.2129 124.569 53.2969 123.229 53.2969H120.413V57.3438H123.202ZM123.134 52.6543C124.364 52.6543 125.103 51.7793 125.103 50.6719C125.103 49.4961 124.337 48.7441 122.97 48.7441H120.413V52.6543H123.134ZM132.466 55.293V50.5762H133.15V58H132.466V56.7832H132.411C132.07 57.5488 131.263 58.0957 130.197 58.0957C128.747 58.0957 127.722 57.1113 127.722 55.4434V50.5762H128.406V55.4023C128.406 56.6191 129.212 57.4258 130.361 57.4258C131.468 57.4258 132.466 56.6328 132.466 55.293ZM139.078 52.3262C138.914 51.5605 138.285 51.082 137.328 51.082C136.261 51.0684 135.523 51.6699 135.523 52.4902C135.523 53.1465 135.974 53.5977 136.918 53.8301L138.066 54.1172C139.255 54.4043 139.857 55.0742 139.857 56.0312C139.857 57.2754 138.845 58.1504 137.191 58.1504C135.701 58.1504 134.757 57.4395 134.566 56.168H135.291C135.441 57.0566 136.111 57.5352 137.191 57.5352C138.38 57.5352 139.16 56.9609 139.16 56.0723C139.16 55.416 138.722 54.9512 137.82 54.7324L136.671 54.4453C135.468 54.1582 134.826 53.4746 134.826 52.5176C134.826 51.3145 135.851 50.4668 137.328 50.4668C138.709 50.4668 139.597 51.2324 139.775 52.3262H139.078ZM141.287 58V50.5762H141.984V58H141.287ZM141.643 49.2773C141.342 49.2773 141.096 49.0449 141.096 48.7578C141.096 48.4707 141.342 48.2383 141.643 48.2383C141.93 48.2383 142.176 48.4707 142.176 48.7578C142.176 49.0449 141.93 49.2773 141.643 49.2773ZM144.494 53.2422V58H143.811V50.5762H144.481V51.752H144.549C144.891 50.9863 145.67 50.4805 146.737 50.4805C148.24 50.4805 149.266 51.4648 149.266 53.1328V58H148.582V53.1738C148.582 51.9297 147.789 51.1094 146.586 51.1094C145.383 51.1094 144.494 51.957 144.494 53.2422ZM154.004 58.1504C151.967 58.1504 150.669 56.5508 150.669 54.3223C150.669 52.0938 152.008 50.4668 153.868 50.4668C155.522 50.4668 156.985 51.793 156.985 54.0762V54.459H151.366C151.393 56.25 152.391 57.5215 154.004 57.5215C155.167 57.5215 155.809 56.8516 156.069 56.373H156.807C156.493 57.3027 155.495 58.1504 154.004 58.1504ZM151.379 53.8438H156.288C156.288 52.2988 155.249 51.0957 153.868 51.0957C152.487 51.0957 151.461 52.3057 151.379 53.8438ZM162.503 52.3262C162.339 51.5605 161.71 51.082 160.753 51.082C159.686 51.0684 158.948 51.6699 158.948 52.4902C158.948 53.1465 159.399 53.5977 160.343 53.8301L161.491 54.1172C162.681 54.4043 163.282 55.0742 163.282 56.0312C163.282 57.2754 162.27 58.1504 160.616 58.1504C159.126 58.1504 158.182 57.4395 157.991 56.168H158.716C158.866 57.0566 159.536 57.5352 160.616 57.5352C161.806 57.5352 162.585 56.9609 162.585 56.0723C162.585 55.416 162.147 54.9512 161.245 54.7324L160.097 54.4453C158.893 54.1582 158.251 53.4746 158.251 52.5176C158.251 51.3145 159.276 50.4668 160.753 50.4668C162.134 50.4668 163.022 51.2324 163.2 52.3262H162.503ZM168.814 52.3262C168.65 51.5605 168.021 51.082 167.064 51.082C165.997 51.0684 165.259 51.6699 165.259 52.4902C165.259 53.1465 165.71 53.5977 166.654 53.8301L167.802 54.1172C168.991 54.4043 169.593 55.0742 169.593 56.0312C169.593 57.2754 168.581 58.1504 166.927 58.1504C165.437 58.1504 164.493 57.4395 164.302 56.168H165.027C165.177 57.0566 165.847 57.5352 166.927 57.5352C168.116 57.5352 168.896 56.9609 168.896 56.0723C168.896 55.416 168.458 54.9512 167.556 54.7324L166.407 54.4453C165.204 54.1582 164.562 53.4746 164.562 52.5176C164.562 51.3145 165.587 50.4668 167.064 50.4668C168.445 50.4668 169.333 51.2324 169.511 52.3262H168.814ZM173.902 58H173.15L176.719 48.1016H177.525L181.107 58H180.355L179.248 54.8965H175.01L173.902 58ZM175.242 54.2539H179.029L177.156 49.0176H177.101L175.242 54.2539ZM186.858 55.293V50.5762H187.541V58H186.858V56.7832H186.803C186.461 57.5488 185.654 58.0957 184.588 58.0957C183.139 58.0957 182.113 57.1113 182.113 55.4434V50.5762H182.797V55.4023C182.797 56.6191 183.604 57.4258 184.752 57.4258C185.86 57.4258 186.858 56.6328 186.858 55.293ZM192.075 50.5762V51.1777H190.516V56.1816C190.516 57.084 191.09 57.4531 191.733 57.4531L192.266 57.4395V58.082C192.129 58.1094 191.965 58.123 191.678 58.123C190.735 58.123 189.832 57.4805 189.832 56.3184V51.1777H188.739V50.5762H189.832V48.7988H190.516V50.5762H192.075ZM196.321 58.1504C194.448 58.1504 193.108 56.5508 193.108 54.3086C193.108 52.0664 194.448 50.4668 196.321 50.4668C198.194 50.4668 199.534 52.0664 199.534 54.3086C199.534 56.5508 198.194 58.1504 196.321 58.1504ZM196.321 57.5215C197.866 57.5215 198.837 56.0996 198.837 54.3086C198.837 52.5312 197.866 51.0957 196.321 51.0957C194.776 51.0957 193.805 52.5449 193.805 54.3086C193.805 56.0996 194.776 57.5215 196.321 57.5215ZM200.937 58V50.5762H201.607V51.7109H201.675C201.962 50.9453 202.687 50.4805 203.657 50.4805C204.724 50.4805 205.38 51.0137 205.681 51.8887H205.735C206.036 51.0273 206.816 50.4805 207.909 50.4805C209.331 50.4805 210.138 51.4238 210.138 53.0234V58H209.441V53.0234C209.441 51.8066 208.825 51.1094 207.732 51.1094C206.542 51.1094 205.886 51.9434 205.886 53.0781V58H205.189V52.9824C205.189 51.875 204.614 51.1094 203.493 51.1094C202.372 51.1094 201.62 51.9707 201.62 53.1738V58H200.937ZM211.554 55.9492C211.554 54.6367 212.497 53.8848 214.234 53.748C214.76 53.7002 215.997 53.6182 216.353 53.5977V52.8047C216.353 51.752 215.628 51.082 214.425 51.082C213.414 51.082 212.662 51.5605 212.47 52.3262H211.759C211.923 51.1914 213.017 50.4668 214.453 50.4668C215.71 50.4668 217.037 51.123 217.037 52.8594V58H216.353V56.7148H216.298C215.929 57.4941 215.122 58.1641 213.933 58.1641C212.634 58.1641 211.554 57.3711 211.554 55.9492ZM212.238 55.9766C212.238 56.9473 213.003 57.5352 214.015 57.5352C215.396 57.5352 216.353 56.4551 216.353 55.0332V54.1855C215.977 54.2197 214.774 54.3154 214.371 54.3359C212.826 54.4453 212.238 55.0879 212.238 55.9766ZM221.584 50.5762V51.1777H220.025V56.1816C220.025 57.084 220.599 57.4531 221.242 57.4531L221.775 57.4395V58.082C221.638 58.1094 221.474 58.123 221.187 58.123C220.244 58.123 219.342 57.4805 219.342 56.3184V51.1777H218.248V50.5762H219.342V48.7988H220.025V50.5762H221.584ZM223.123 58V50.5762H223.82V58H223.123ZM223.479 49.2773C223.178 49.2773 222.932 49.0449 222.932 48.7578C222.932 48.4707 223.178 48.2383 223.479 48.2383C223.766 48.2383 224.012 48.4707 224.012 48.7578C224.012 49.0449 223.766 49.2773 223.479 49.2773ZM228.45 58.1504C226.577 58.1504 225.237 56.5508 225.237 54.3086C225.237 52.0664 226.577 50.4668 228.45 50.4668C230.323 50.4668 231.662 52.0664 231.662 54.3086C231.662 56.5508 230.323 58.1504 228.45 58.1504ZM228.45 57.5215C229.995 57.5215 230.965 56.0996 230.965 54.3086C230.965 52.5312 229.995 51.0957 228.45 51.0957C226.905 51.0957 225.934 52.5449 225.934 54.3086C225.934 56.0996 226.905 57.5215 228.45 57.5215ZM233.749 53.2422V58H233.065V50.5762H233.735V51.752H233.803C234.145 50.9863 234.925 50.4805 235.991 50.4805C237.495 50.4805 238.52 51.4648 238.52 53.1328V58H237.837V53.1738C237.837 51.9297 237.044 51.1094 235.841 51.1094C234.637 51.1094 233.749 51.957 233.749 53.2422ZM243.226 58H242.474L246.042 48.1016H246.849L250.431 58H249.679L248.572 54.8965H244.333L243.226 58ZM244.566 54.2539H248.353L246.48 49.0176H246.425L244.566 54.2539ZM251.437 60.7891V50.5762H252.107V52.1621H252.189C252.517 51.2871 253.242 50.4668 254.541 50.4668C256.345 50.4668 257.535 52.0391 257.535 54.3086C257.535 56.5645 256.332 58.1504 254.554 58.1504C253.269 58.1504 252.517 57.3301 252.189 56.4551H252.121V60.7891H251.437ZM252.121 54.2949C252.121 56.1543 252.996 57.5215 254.472 57.5215C255.976 57.5215 256.838 56.1133 256.838 54.2949C256.838 52.4902 255.99 51.0957 254.472 51.0957C252.982 51.0957 252.121 52.4492 252.121 54.2949ZM258.938 60.7891V50.5762H259.607V52.1621H259.689C260.018 51.2871 260.742 50.4668 262.041 50.4668C263.846 50.4668 265.035 52.0391 265.035 54.3086C265.035 56.5645 263.832 58.1504 262.055 58.1504C260.77 58.1504 260.018 57.3301 259.689 56.4551H259.621V60.7891H258.938ZM259.621 54.2949C259.621 56.1543 260.496 57.5215 261.973 57.5215C263.477 57.5215 264.338 56.1133 264.338 54.2949C264.338 52.4902 263.49 51.0957 261.973 51.0957C260.482 51.0957 259.621 52.4492 259.621 54.2949Z" fill="black"/>
<path d="M0 40.6535L20.8445 26.6359L53 47.5809L31.9939 63.6359L0 40.6535Z" fill="#84CDFF" fill-opacity="0.5"/>
<path d="M2 32.6535L22.8445 18.6359L55 39.5809L33.9939 55.6359L2 32.6535Z" fill="#84CDFF" fill-opacity="0.5"/>
<path d="M4 22.6535L24.8445 8.63593L57 29.5809L35.9939 45.6359L4 22.6535Z" fill="#3A96F9"/>
<path d="M65.2959 0L70.9094 4.18189L55.8016 20.3608L54.024 19.0365L65.2959 0Z" fill="#B9B9B9"/>
<path d="M49.465 2.63593L56.069 4.95699L49.2926 16.8485L47.2013 16.1135L49.465 2.63593Z" fill="#B9B9B9"/>
<path d="M67.1127 14.6359L71.7348 19.8929L60.0044 26.9445L58.5407 25.2798L67.1127 14.6359Z" fill="#B9B9B9"/>
</svg>
