<svg width="227" height="77" viewBox="0 0 227 77" fill="none" xmlns="http://www.w3.org/2000/svg">
<path d="M91.5982 68.96C90.8302 68.96 90.2329 68.7253 89.8062 68.256C89.3796 67.7867 89.1662 67.136 89.1662 66.304C89.1662 65.4507 89.3849 64.7947 89.8222 64.336C90.2702 63.8667 90.8836 63.632 91.6622 63.632C91.9182 63.632 92.1636 63.6587 92.3982 63.712C92.6436 63.7547 92.8836 63.8293 93.1182 63.936L92.8462 64.736C92.6436 64.6507 92.4409 64.5867 92.2382 64.544C92.0462 64.5013 91.8489 64.48 91.6462 64.48C91.1769 64.48 90.8196 64.6347 90.5742 64.944C90.3396 65.2427 90.2222 65.696 90.2222 66.304C90.2222 66.88 90.3396 67.328 90.5742 67.648C90.8089 67.9573 91.1502 68.112 91.5982 68.112C91.8116 68.112 92.0356 68.0853 92.2702 68.032C92.5156 67.968 92.7716 67.8827 93.0382 67.776V68.64C92.7822 68.7467 92.5369 68.8267 92.3022 68.88C92.0676 68.9333 91.8329 68.96 91.5982 68.96ZM91.1662 72.88C90.2596 72.88 89.4062 72.7093 88.6062 72.368C87.8062 72.0267 87.1022 71.5573 86.4942 70.96C85.8969 70.352 85.4276 69.648 85.0862 68.848C84.7449 68.048 84.5742 67.1947 84.5742 66.288C84.5742 65.3707 84.7449 64.5173 85.0862 63.728C85.4276 62.928 85.8969 62.2293 86.4942 61.632C87.1022 61.024 87.8062 60.5493 88.6062 60.208C89.4062 59.8667 90.2596 59.696 91.1662 59.696C92.0836 59.696 92.9369 59.8667 93.7262 60.208C94.5262 60.5493 95.2249 61.024 95.8222 61.632C96.4302 62.2293 96.9049 62.928 97.2462 63.728C97.5876 64.5173 97.7582 65.3707 97.7582 66.288C97.7582 67.1947 97.5876 68.048 97.2462 68.848C96.9049 69.648 96.4302 70.352 95.8222 70.96C95.2249 71.5573 94.5262 72.0267 93.7262 72.368C92.9369 72.7093 92.0836 72.88 91.1662 72.88ZM91.1662 71.984C91.9556 71.984 92.6916 71.84 93.3742 71.552C94.0676 71.2533 94.6756 70.8427 95.1982 70.32C95.7209 69.7973 96.1262 69.1947 96.4142 68.512C96.7129 67.8187 96.8622 67.0773 96.8622 66.288C96.8622 65.4987 96.7129 64.7627 96.4142 64.08C96.1262 63.3867 95.7209 62.7787 95.1982 62.256C94.6756 61.7333 94.0676 61.328 93.3742 61.04C92.6916 60.7413 91.9556 60.592 91.1662 60.592C90.3769 60.592 89.6356 60.7413 88.9422 61.04C88.2596 61.328 87.6569 61.7333 87.1342 62.256C86.6116 62.7787 86.2009 63.3867 85.9022 64.08C85.6142 64.7627 85.4702 65.4987 85.4702 66.288C85.4702 67.0773 85.6142 67.8187 85.9022 68.512C86.2009 69.1947 86.6116 69.7973 87.1342 70.32C87.6569 70.8427 88.2596 71.2533 88.9422 71.552C89.6356 71.84 90.3769 71.984 91.1662 71.984ZM106.573 63.5156V64.2031H104.792V69.9219C104.792 70.9531 105.448 71.375 106.182 71.375L106.792 71.3594V72.0938C106.636 72.125 106.448 72.1406 106.12 72.1406C105.042 72.1406 104.011 71.4062 104.011 70.0781V64.2031H102.761V63.5156H104.011V61.4844H104.792V63.5156H106.573ZM107.925 69.6562C107.925 68.1562 109.003 67.2969 110.987 67.1406C111.589 67.0859 113.003 66.9922 113.409 66.9688V66.0625C113.409 64.8594 112.581 64.0938 111.206 64.0938C110.05 64.0938 109.191 64.6406 108.972 65.5156H108.159C108.347 64.2188 109.597 63.3906 111.237 63.3906C112.675 63.3906 114.191 64.1406 114.191 66.125V72H113.409V70.5312H113.347C112.925 71.4219 112.003 72.1875 110.644 72.1875C109.159 72.1875 107.925 71.2812 107.925 69.6562ZM108.706 69.6875C108.706 70.7969 109.581 71.4688 110.737 71.4688C112.316 71.4688 113.409 70.2344 113.409 68.6094V67.6406C112.98 67.6797 111.605 67.7891 111.144 67.8125C109.378 67.9375 108.706 68.6719 108.706 69.6875ZM119.667 72.1719C117.339 72.1719 115.855 70.3438 115.855 67.7969C115.855 65.25 117.386 63.3906 119.511 63.3906C121.402 63.3906 123.074 64.9062 123.074 67.5156V67.9531H116.652C116.683 70 117.824 71.4531 119.667 71.4531C120.996 71.4531 121.73 70.6875 122.027 70.1406H122.871C122.511 71.2031 121.371 72.1719 119.667 72.1719ZM116.667 67.25H122.277C122.277 65.4844 121.089 64.1094 119.511 64.1094C117.933 64.1094 116.761 65.4922 116.667 67.25ZM124.722 72V63.5156H125.488V64.8125H125.566C125.894 63.9375 126.722 63.4062 127.832 63.4062C129.051 63.4062 129.801 64.0156 130.144 65.0156H130.207C130.551 64.0312 131.441 63.4062 132.691 63.4062C134.316 63.4062 135.238 64.4844 135.238 66.3125V72H134.441V66.3125C134.441 64.9219 133.738 64.125 132.488 64.125C131.129 64.125 130.379 65.0781 130.379 66.375V72H129.582V66.2656C129.582 65 128.926 64.125 127.644 64.125C126.363 64.125 125.504 65.1094 125.504 66.4844V72H124.722ZM143.848 63.5156V64.2031H142.067V69.9219C142.067 70.9531 142.723 71.375 143.457 71.375L144.067 71.3594V72.0938C143.911 72.125 143.723 72.1406 143.395 72.1406C142.317 72.1406 141.286 71.4062 141.286 70.0781V64.2031H140.036V63.5156H141.286V61.4844H142.067V63.5156H143.848ZM145.2 69.6562C145.2 68.1562 146.278 67.2969 148.262 67.1406C148.864 67.0859 150.278 66.9922 150.684 66.9688V66.0625C150.684 64.8594 149.856 64.0938 148.481 64.0938C147.325 64.0938 146.466 64.6406 146.247 65.5156H145.434C145.622 64.2188 146.872 63.3906 148.512 63.3906C149.95 63.3906 151.466 64.1406 151.466 66.125V72H150.684V70.5312H150.622C150.2 71.4219 149.278 72.1875 147.919 72.1875C146.434 72.1875 145.2 71.2812 145.2 69.6562ZM145.981 69.6875C145.981 70.7969 146.856 71.4688 148.012 71.4688C149.591 71.4688 150.684 70.2344 150.684 68.6094V67.6406C150.255 67.6797 148.88 67.7891 148.419 67.8125C146.653 67.9375 145.981 68.6719 145.981 69.6875ZM154.38 66.5625V72H153.599V63.5156H154.364V64.8594H154.443C154.833 63.9844 155.724 63.4062 156.943 63.4062C158.661 63.4062 159.833 64.5312 159.833 66.4375V72H159.052V66.4844C159.052 65.0625 158.146 64.125 156.771 64.125C155.396 64.125 154.38 65.0938 154.38 66.5625ZM165.154 72.1719C163.013 72.1719 161.482 70.3438 161.482 67.7812C161.482 65.2188 163.013 63.3906 165.154 63.3906C167.294 63.3906 168.826 65.2188 168.826 67.7812C168.826 70.3438 167.294 72.1719 165.154 72.1719ZM165.154 71.4531C166.919 71.4531 168.029 69.8281 168.029 67.7812C168.029 65.75 166.919 64.1094 165.154 64.1094C163.388 64.1094 162.279 65.7656 162.279 67.7812C162.279 69.8281 163.388 71.4531 165.154 71.4531ZM175.178 65.5156C174.99 64.6406 174.271 64.0938 173.178 64.0938C171.959 64.0781 171.115 64.7656 171.115 65.7031C171.115 66.4531 171.631 66.9688 172.709 67.2344L174.021 67.5625C175.381 67.8906 176.068 68.6562 176.068 69.75C176.068 71.1719 174.912 72.1719 173.021 72.1719C171.318 72.1719 170.24 71.3594 170.021 69.9062H170.849C171.021 70.9219 171.787 71.4688 173.021 71.4688C174.381 71.4688 175.271 70.8125 175.271 69.7969C175.271 69.0469 174.771 68.5156 173.74 68.2656L172.428 67.9375C171.053 67.6094 170.318 66.8281 170.318 65.7344C170.318 64.3594 171.49 63.3906 173.178 63.3906C174.756 63.3906 175.771 64.2656 175.974 65.5156H175.178Z" fill="white"/>
<path d="M71.3619 20.7188V16.375H90.3931V20.7188H83.5181V39H78.2369V20.7188H71.3619ZM89.6044 34.2812C89.6044 30.5312 92.5106 29.1875 95.8856 28.9688C97.1044 28.8906 99.2294 28.8125 99.9481 28.7812V27.4062C99.9481 26.2188 99.0731 25.5625 97.6356 25.5625C96.2294 25.5625 95.3544 26.1562 95.1356 27.2812H90.2294C90.4481 24.2812 93.0106 21.8125 97.7606 21.8125C101.948 21.8125 105.229 23.8125 105.229 27.4688V39H100.261V36.625H100.136C99.1981 38.3438 97.5731 39.3125 95.1981 39.3125C91.9481 39.3125 89.6044 37.6562 89.6044 34.2812ZM94.6044 34.0625C94.6044 35.2188 95.5106 35.8125 96.7919 35.8125C98.5731 35.8125 100.011 34.6562 99.9794 32.9688V31.875C99.3388 31.9062 97.5419 31.9844 96.7606 32.0625C95.4481 32.2188 94.6044 32.9375 94.6044 34.0625ZM113.409 29.2812V39H108.128V22.0312H113.128V25.125H113.316C114.097 23.0625 115.972 21.8125 118.472 21.8125C122.034 21.8125 124.378 24.3438 124.347 28.1875V39H119.097V29.1875C119.097 27.2812 118.066 26.125 116.316 26.125C114.566 26.125 113.409 27.3125 113.409 29.2812ZM135.214 39.3125C129.902 39.3125 126.683 35.7812 126.683 30.5625C126.683 25.3438 129.902 21.8125 135.214 21.8125C140.527 21.8125 143.746 25.3438 143.746 30.5625C143.746 35.7812 140.527 39.3125 135.214 39.3125ZM135.246 35.3438C137.246 35.3438 138.371 33.375 138.371 30.5312C138.371 27.6875 137.246 25.7188 135.246 25.7188C133.183 25.7188 132.058 27.6875 132.058 30.5312C132.058 33.375 133.183 35.3438 135.246 35.3438ZM155.926 27.2812C155.769 26.1562 154.769 25.4375 153.363 25.4375C152.051 25.4375 151.019 26.0312 151.051 26.9062C151.019 27.5625 151.519 28.0938 152.988 28.375L156.207 29C159.582 29.6562 161.207 31.125 161.238 33.5938C161.207 37.0625 158.019 39.3125 153.426 39.3125C148.582 39.3125 145.738 37.1562 145.394 33.7812H150.644C150.832 35 151.894 35.6562 153.457 35.6562C154.894 35.6562 155.863 35.0938 155.894 34.1562C155.863 33.4062 155.207 32.9375 153.738 32.625L150.832 32.0938C147.488 31.4688 145.801 29.7812 145.832 27.1875C145.801 23.8125 148.676 21.8125 153.269 21.8125C157.832 21.8125 160.613 23.9062 160.832 27.2812H155.926ZM185.411 24.5312C185.098 22.2188 183.442 20.75 180.911 20.75C177.567 20.75 175.536 23.2812 175.536 27.6875C175.536 32.25 177.629 34.625 180.879 34.625C183.317 34.625 185.004 33.3125 185.411 31.0938L190.786 31.125C190.348 35.1562 186.911 39.3125 180.786 39.3125C174.661 39.3125 170.098 35.125 170.098 27.6875C170.098 20.2188 174.754 16.0625 180.786 16.0625C186.223 16.0625 190.223 19.125 190.786 24.5312H185.411ZM192.747 34.2812C192.747 30.5312 195.653 29.1875 199.028 28.9688C200.247 28.8906 202.372 28.8125 203.091 28.7812V27.4062C203.091 26.2188 202.216 25.5625 200.778 25.5625C199.372 25.5625 198.497 26.1562 198.278 27.2812H193.372C193.591 24.2812 196.153 21.8125 200.903 21.8125C205.091 21.8125 208.372 23.8125 208.372 27.4688V39H203.403V36.625H203.278C202.341 38.3438 200.716 39.3125 198.341 39.3125C195.091 39.3125 192.747 37.6562 192.747 34.2812ZM197.747 34.0625C197.747 35.2188 198.653 35.8125 199.934 35.8125C201.716 35.8125 203.153 34.6562 203.122 32.9688V31.875C202.481 31.9062 200.684 31.9844 199.903 32.0625C198.591 32.2188 197.747 32.9375 197.747 34.0625ZM216.552 16.375V39H211.271V16.375H216.552ZM224.888 16.375V39H219.607V16.375H224.888Z" fill="white"/>
<path d="M0 32.0176L20.8445 18L53 38.9449L31.9939 55L0 32.0176Z" fill="white" fill-opacity="0.5"/>
<path d="M2 24.0176L22.8445 10L55 30.9449L33.9939 47L2 24.0176Z" fill="white" fill-opacity="0.5"/>
<path d="M4 14.0176L24.8445 0L57 20.9449L35.9939 37L4 14.0176Z" fill="white"/>
<path d="M71.3619 20.7188V16.375H90.3931V20.7188H83.5181V39H78.2369V20.7188H71.3619ZM89.6044 34.2812C89.6044 30.5312 92.5106 29.1875 95.8856 28.9688C97.1044 28.8906 99.2294 28.8125 99.9481 28.7812V27.4062C99.9481 26.2188 99.0731 25.5625 97.6356 25.5625C96.2294 25.5625 95.3544 26.1562 95.1356 27.2812H90.2294C90.4481 24.2812 93.0106 21.8125 97.7606 21.8125C101.948 21.8125 105.229 23.8125 105.229 27.4688V39H100.261V36.625H100.136C99.1981 38.3438 97.5731 39.3125 95.1981 39.3125C91.9481 39.3125 89.6044 37.6562 89.6044 34.2812ZM94.6044 34.0625C94.6044 35.2188 95.5106 35.8125 96.7919 35.8125C98.5731 35.8125 100.011 34.6562 99.9794 32.9688V31.875C99.3388 31.9062 97.5419 31.9844 96.7606 32.0625C95.4481 32.2188 94.6044 32.9375 94.6044 34.0625ZM113.409 29.2812V39H108.128V22.0312H113.128V25.125H113.316C114.097 23.0625 115.972 21.8125 118.472 21.8125C122.034 21.8125 124.378 24.3438 124.347 28.1875V39H119.097V29.1875C119.097 27.2812 118.066 26.125 116.316 26.125C114.566 26.125 113.409 27.3125 113.409 29.2812ZM135.214 39.3125C129.902 39.3125 126.683 35.7812 126.683 30.5625C126.683 25.3438 129.902 21.8125 135.214 21.8125C140.527 21.8125 143.746 25.3438 143.746 30.5625C143.746 35.7812 140.527 39.3125 135.214 39.3125ZM135.246 35.3438C137.246 35.3438 138.371 33.375 138.371 30.5312C138.371 27.6875 137.246 25.7188 135.246 25.7188C133.183 25.7188 132.058 27.6875 132.058 30.5312C132.058 33.375 133.183 35.3438 135.246 35.3438ZM155.926 27.2812C155.769 26.1562 154.769 25.4375 153.363 25.4375C152.051 25.4375 151.019 26.0312 151.051 26.9062C151.019 27.5625 151.519 28.0938 152.988 28.375L156.207 29C159.582 29.6562 161.207 31.125 161.238 33.5938C161.207 37.0625 158.019 39.3125 153.426 39.3125C148.582 39.3125 145.738 37.1562 145.394 33.7812H150.644C150.832 35 151.894 35.6562 153.457 35.6562C154.894 35.6562 155.863 35.0938 155.894 34.1562C155.863 33.4062 155.207 32.9375 153.738 32.625L150.832 32.0938C147.488 31.4688 145.801 29.7812 145.832 27.1875C145.801 23.8125 148.676 21.8125 153.269 21.8125C157.832 21.8125 160.613 23.9062 160.832 27.2812H155.926ZM185.411 24.5312C185.098 22.2188 183.442 20.75 180.911 20.75C177.567 20.75 175.536 23.2812 175.536 27.6875C175.536 32.25 177.629 34.625 180.879 34.625C183.317 34.625 185.004 33.3125 185.411 31.0938L190.786 31.125C190.348 35.1562 186.911 39.3125 180.786 39.3125C174.661 39.3125 170.098 35.125 170.098 27.6875C170.098 20.2188 174.754 16.0625 180.786 16.0625C186.223 16.0625 190.223 19.125 190.786 24.5312H185.411ZM192.747 34.2812C192.747 30.5312 195.653 29.1875 199.028 28.9688C200.247 28.8906 202.372 28.8125 203.091 28.7812V27.4062C203.091 26.2188 202.216 25.5625 200.778 25.5625C199.372 25.5625 198.497 26.1562 198.278 27.2812H193.372C193.591 24.2812 196.153 21.8125 200.903 21.8125C205.091 21.8125 208.372 23.8125 208.372 27.4688V39H203.403V36.625H203.278C202.341 38.3438 200.716 39.3125 198.341 39.3125C195.091 39.3125 192.747 37.6562 192.747 34.2812ZM197.747 34.0625C197.747 35.2188 198.653 35.8125 199.934 35.8125C201.716 35.8125 203.153 34.6562 203.122 32.9688V31.875C202.481 31.9062 200.684 31.9844 199.903 32.0625C198.591 32.2188 197.747 32.9375 197.747 34.0625ZM216.552 16.375V39H211.271V16.375H216.552ZM224.888 16.375V39H219.607V16.375H224.888Z" fill="white"/>
<path d="M0 32.0176L20.8445 18L53 38.9449L31.9939 55L0 32.0176Z" fill="white" fill-opacity="0.5"/>
<path d="M2 24.0176L22.8445 10L55 30.9449L33.9939 47L2 24.0176Z" fill="white" fill-opacity="0.5"/>
<path d="M4 14.0176L24.8445 0L57 20.9449L35.9939 37L4 14.0176Z" fill="white"/>
</svg>
