<svg width="227" height="55" viewBox="0 0 227 55" fill="none" xmlns="http://www.w3.org/2000/svg">
<path d="M71.3619 20.7188V16.375H90.3931V20.7188H83.5181V39H78.2369V20.7188H71.3619ZM89.6044 34.2812C89.6044 30.5312 92.5106 29.1875 95.8856 28.9688C97.1044 28.8906 99.2294 28.8125 99.9481 28.7812V27.4062C99.9481 26.2188 99.0731 25.5625 97.6356 25.5625C96.2294 25.5625 95.3544 26.1562 95.1356 27.2812H90.2294C90.4481 24.2812 93.0106 21.8125 97.7606 21.8125C101.948 21.8125 105.229 23.8125 105.229 27.4688V39H100.261V36.625H100.136C99.1981 38.3438 97.5731 39.3125 95.1981 39.3125C91.9481 39.3125 89.6044 37.6562 89.6044 34.2812ZM94.6044 34.0625C94.6044 35.2188 95.5106 35.8125 96.7919 35.8125C98.5731 35.8125 100.011 34.6562 99.9794 32.9688V31.875C99.3388 31.9062 97.5419 31.9844 96.7606 32.0625C95.4481 32.2188 94.6044 32.9375 94.6044 34.0625ZM113.409 29.2812V39H108.128V22.0312H113.128V25.125H113.316C114.097 23.0625 115.972 21.8125 118.472 21.8125C122.034 21.8125 124.378 24.3438 124.347 28.1875V39H119.097V29.1875C119.097 27.2812 118.066 26.125 116.316 26.125C114.566 26.125 113.409 27.3125 113.409 29.2812ZM135.214 39.3125C129.902 39.3125 126.683 35.7812 126.683 30.5625C126.683 25.3438 129.902 21.8125 135.214 21.8125C140.527 21.8125 143.746 25.3438 143.746 30.5625C143.746 35.7812 140.527 39.3125 135.214 39.3125ZM135.246 35.3438C137.246 35.3438 138.371 33.375 138.371 30.5312C138.371 27.6875 137.246 25.7188 135.246 25.7188C133.183 25.7188 132.058 27.6875 132.058 30.5312C132.058 33.375 133.183 35.3438 135.246 35.3438ZM155.926 27.2812C155.769 26.1562 154.769 25.4375 153.363 25.4375C152.051 25.4375 151.019 26.0312 151.051 26.9062C151.019 27.5625 151.519 28.0938 152.988 28.375L156.207 29C159.582 29.6562 161.207 31.125 161.238 33.5938C161.207 37.0625 158.019 39.3125 153.426 39.3125C148.582 39.3125 145.738 37.1562 145.394 33.7812H150.644C150.832 35 151.894 35.6562 153.457 35.6562C154.894 35.6562 155.863 35.0938 155.894 34.1562C155.863 33.4062 155.207 32.9375 153.738 32.625L150.832 32.0938C147.488 31.4688 145.801 29.7812 145.832 27.1875C145.801 23.8125 148.676 21.8125 153.269 21.8125C157.832 21.8125 160.613 23.9062 160.832 27.2812H155.926ZM185.411 24.5312C185.098 22.2188 183.442 20.75 180.911 20.75C177.567 20.75 175.536 23.2812 175.536 27.6875C175.536 32.25 177.629 34.625 180.879 34.625C183.317 34.625 185.004 33.3125 185.411 31.0938L190.786 31.125C190.348 35.1562 186.911 39.3125 180.786 39.3125C174.661 39.3125 170.098 35.125 170.098 27.6875C170.098 20.2188 174.754 16.0625 180.786 16.0625C186.223 16.0625 190.223 19.125 190.786 24.5312H185.411ZM192.747 34.2812C192.747 30.5312 195.653 29.1875 199.028 28.9688C200.247 28.8906 202.372 28.8125 203.091 28.7812V27.4062C203.091 26.2188 202.216 25.5625 200.778 25.5625C199.372 25.5625 198.497 26.1562 198.278 27.2812H193.372C193.591 24.2812 196.153 21.8125 200.903 21.8125C205.091 21.8125 208.372 23.8125 208.372 27.4688V39H203.403V36.625H203.278C202.341 38.3438 200.716 39.3125 198.341 39.3125C195.091 39.3125 192.747 37.6562 192.747 34.2812ZM197.747 34.0625C197.747 35.2188 198.653 35.8125 199.934 35.8125C201.716 35.8125 203.153 34.6562 203.122 32.9688V31.875C202.481 31.9062 200.684 31.9844 199.903 32.0625C198.591 32.2188 197.747 32.9375 197.747 34.0625ZM216.552 16.375V39H211.271V16.375H216.552ZM224.888 16.375V39H219.607V16.375H224.888Z" fill="white"/>
<path d="M0 32.0176L20.8445 18L53 38.9449L31.9939 55L0 32.0176Z" fill="white" fill-opacity="0.5"/>
<path d="M2 24.0176L22.8445 10L55 30.9449L33.9939 47L2 24.0176Z" fill="white" fill-opacity="0.5"/>
<path d="M4 14.0176L24.8445 0L57 20.9449L35.9939 37L4 14.0176Z" fill="white"/>
</svg>
