<svg width="247" height="55" viewBox="0 0 247 55" fill="none" xmlns="http://www.w3.org/2000/svg">
<path d="M70.0687 20.7188V16.375H89.1V20.7188H82.225V39H76.9437V20.7188H70.0687ZM96.6862 29.2812V39H91.405V16.375H96.4987V25.125H96.6862C97.4675 23.0625 99.2487 21.8125 101.78 21.8125C105.342 21.8125 107.686 24.3125 107.686 28.1875V39H102.405V29.1875C102.436 27.2812 101.405 26.125 99.6237 26.125C97.8737 26.125 96.6862 27.3125 96.6862 29.2812ZM109.897 34.2812C109.897 30.5312 112.804 29.1875 116.179 28.9688C117.397 28.8906 119.522 28.8125 120.241 28.7812V27.4062C120.241 26.2188 119.366 25.5625 117.929 25.5625C116.522 25.5625 115.647 26.1562 115.429 27.2812H110.522C110.741 24.2812 113.304 21.8125 118.054 21.8125C122.241 21.8125 125.522 23.8125 125.522 27.4688V39H120.554V36.625H120.429C119.491 38.3438 117.866 39.3125 115.491 39.3125C112.241 39.3125 109.897 37.6562 109.897 34.2812ZM114.897 34.0625C114.897 35.2188 115.804 35.8125 117.085 35.8125C118.866 35.8125 120.304 34.6562 120.272 32.9688V31.875C119.632 31.9062 117.835 31.9844 117.054 32.0625C115.741 32.2188 114.897 32.9375 114.897 34.0625ZM133.702 29.2812V39H128.421V22.0312H133.421V25.125H133.609C134.39 23.0625 136.265 21.8125 138.765 21.8125C142.327 21.8125 144.671 24.3438 144.64 28.1875V39H139.39V29.1875C139.39 27.2812 138.359 26.125 136.609 26.125C134.859 26.125 133.702 27.3125 133.702 29.2812ZM155.507 39.3125C150.195 39.3125 146.976 35.7812 146.976 30.5625C146.976 25.3438 150.195 21.8125 155.507 21.8125C160.82 21.8125 164.039 25.3438 164.039 30.5625C164.039 35.7812 160.82 39.3125 155.507 39.3125ZM155.539 35.3438C157.539 35.3438 158.664 33.375 158.664 30.5312C158.664 27.6875 157.539 25.7188 155.539 25.7188C153.476 25.7188 152.351 27.6875 152.351 30.5312C152.351 33.375 153.476 35.3438 155.539 35.3438ZM176.219 27.2812C176.062 26.1562 175.062 25.4375 173.656 25.4375C172.344 25.4375 171.312 26.0312 171.344 26.9062C171.312 27.5625 171.812 28.0938 173.281 28.375L176.5 29C179.875 29.6562 181.5 31.125 181.531 33.5938C181.5 37.0625 178.312 39.3125 173.719 39.3125C168.875 39.3125 166.031 37.1562 165.688 33.7812H170.938C171.125 35 172.188 35.6562 173.75 35.6562C175.188 35.6562 176.156 35.0938 176.188 34.1562C176.156 33.4062 175.5 32.9375 174.031 32.625L171.125 32.0938C167.781 31.4688 166.094 29.7812 166.125 27.1875C166.094 23.8125 168.969 21.8125 173.562 21.8125C178.125 21.8125 180.906 23.9062 181.125 27.2812H176.219ZM205.704 24.5312C205.391 22.2188 203.735 20.75 201.204 20.75C197.86 20.75 195.829 23.2812 195.829 27.6875C195.829 32.25 197.923 34.625 201.173 34.625C203.61 34.625 205.298 33.3125 205.704 31.0938L211.079 31.125C210.641 35.1562 207.204 39.3125 201.079 39.3125C194.954 39.3125 190.391 35.125 190.391 27.6875C190.391 20.2188 195.048 16.0625 201.079 16.0625C206.516 16.0625 210.516 19.125 211.079 24.5312H205.704ZM213.04 34.2812C213.04 30.5312 215.946 29.1875 219.321 28.9688C220.54 28.8906 222.665 28.8125 223.384 28.7812V27.4062C223.384 26.2188 222.509 25.5625 221.071 25.5625C219.665 25.5625 218.79 26.1562 218.571 27.2812H213.665C213.884 24.2812 216.446 21.8125 221.196 21.8125C225.384 21.8125 228.665 23.8125 228.665 27.4688V39H223.696V36.625H223.571C222.634 38.3438 221.009 39.3125 218.634 39.3125C215.384 39.3125 213.04 37.6562 213.04 34.2812ZM218.04 34.0625C218.04 35.2188 218.946 35.8125 220.228 35.8125C222.009 35.8125 223.446 34.6562 223.415 32.9688V31.875C222.774 31.9062 220.978 31.9844 220.196 32.0625C218.884 32.2188 218.04 32.9375 218.04 34.0625ZM236.845 16.375V39H231.564V16.375H236.845ZM245.181 16.375V39H239.9V16.375H245.181Z" fill="white"/>
<path d="M0 32.0176L20.8445 18L53 38.9449L31.9939 55L0 32.0176Z" fill="white" fill-opacity="0.5"/>
<path d="M2 24.0176L22.8445 10L55 30.9449L33.9939 47L2 24.0176Z" fill="white" fill-opacity="0.5"/>
<path d="M4 14.0176L24.8445 0L57 20.9449L35.9939 37L4 14.0176Z" fill="white"/>
</svg>
